<svg xmlns="http://www.w3.org/2000/svg" viewBox="0 0 220 160"><defs><radialGradient id="w"><stop stop-color="#b7f6ef"/><stop offset="1" stop-color="#3bb0d0"/></radialGradient></defs><ellipse cx="110" cy="112" rx="96" ry="40" fill="#4f8e55" opacity=".35"/><path d="M18 85c9-48 172-52 187 0 17 59-45 70-95 69-50 0-103-14-92-69z" fill="#8c775b"/><ellipse cx="111" cy="94" rx="82" ry="47" fill="url(#w)" stroke="#d8e9b5" stroke-width="9"/><g fill="#f7d866"><path d="M56 55l5 10 11 2-8 8 2 11-10-5-10 5 2-11-8-8 11-2z"/><circle cx="172" cy="80" r="6"/></g><path d="M101 89q18-17 36 0-18 17-36 0zm-8 1l-15-10v20z" fill="#fff4c6"/></svg>
