<svg xmlns="http://www.w3.org/2000/svg" viewBox="0 0 260 300"><defs><linearGradient id="f"><stop stop-color="#ffd270"/><stop offset="1" stop-color="#ef6b51"/></linearGradient></defs><path d="M43 262q87 48 174 0" fill="#6c4161" opacity=".2"/><path d="M62 112L48 31l70 51m80 30l14-81-70 51" fill="#ef6b51" stroke="#6d3850" stroke-width="8"/><path d="M45 137q7-70 85-70t85 70v73q-4 70-85 70t-85-70z" fill="url(#f)" stroke="#6d3850" stroke-width="8"/><path d="M70 102q60 27 120 0" fill="none" stroke="#fff1bd" stroke-width="15"/><ellipse cx="94" cy="160" rx="13" ry="19" fill="#332743"/><ellipse cx="166" cy="160" rx="13" ry="19" fill="#332743"/><circle cx="99" cy="154" r="4" fill="#fff"/><circle cx="171" cy="154" r="4" fill="#fff"/><path d="M120 192h20l-10 10zm10 10q-18 22-36 2m36-2q18 22 36 2" fill="#e76875" stroke="#6d3850" stroke-width="5" stroke-linecap="round"/><path d="M58 204l-45-8m47 25l-43 9m183-26l45-8m-47 25l43 9" stroke="#6d3850" stroke-width="5" stroke-linecap="round"/><path d="M96 79l14-34 20 31 20-31 14 34" fill="#fff1bd"/></svg>
