<svg xmlns="http://www.w3.org/2000/svg" viewBox="0 0 260 300"><defs><linearGradient id="a" x2="1" y2="1"><stop stop-color="#bdf4ef"/><stop offset="1" stop-color="#49acd1"/></linearGradient></defs><path d="M50 118L42 35l68 52m100 31l8-83-68 52" fill="#4aaed2" stroke="#315579" stroke-width="8"/><path d="M43 140q7-75 87-75t87 75v70q-5 70-87 70t-87-70z" fill="url(#a)" stroke="#315579" stroke-width="8"/><path d="M59 112q26-45 61-18 32-40 82 8-51 16-143 10z" fill="#e9fff9"/><ellipse cx="94" cy="163" rx="14" ry="20" fill="#263851"/><ellipse cx="166" cy="163" rx="14" ry="20" fill="#263851"/><path d="M119 195h22l-11 10zm11 10q-18 20-36 2m36-2q18 20 36 2" fill="#ee7885" stroke="#315579" stroke-width="5"/><path d="M62 208l-46-7m48 24l-42 12m176-29l46-7m-48 24l42 12" stroke="#315579" stroke-width="5" stroke-linecap="round"/><path d="M182 61q28 38 0 54-28-16 0-54z" fill="#fff" opacity=".7"/></svg>
