<svg xmlns="http://www.w3.org/2000/svg" viewBox="0 0 260 300"><path d="M45 122L30 36l78 51m107 35l15-86-78 51" fill="#755ac4" stroke="#34305f" stroke-width="8"/><path d="M40 140q8-76 90-76t90 76v72q-6 70-90 70t-90-70z" fill="#58cbd0" stroke="#34305f" stroke-width="8"/><path d="M48 130q40-77 82-33 47-48 82 33-77-37-164 0z" fill="#8466d0"/><ellipse cx="92" cy="163" rx="14" ry="21" fill="#27274a"/><ellipse cx="168" cy="163" rx="14" ry="21" fill="#27274a"/><path d="M118 196h24l-12 11zm12 11q-18 20-37 2m37-2q18 20 37 2" fill="#ed7892" stroke="#34305f" stroke-width="5"/><path d="M69 89l-22-34 40 14m104 20l22-34-40 14" fill="#ff9d7a"/></svg>
