<svg xmlns="http://www.w3.org/2000/svg" viewBox="0 0 260 300"><path d="M29 137Q3 74 62 57 96 4 130 42q34-38 68 15 59 17 33 80 26 58-31 83-25 70-70 39-45 31-70-39-57-25-31-83z" fill="#a93843" stroke="#5d293d" stroke-width="9"/><path d="M52 139q7-69 78-69t78 69v66q-4 65-78 65t-78-65z" fill="#f4a34f"/><path d="M66 112q64-53 128 0" fill="#ffdc72"/><ellipse cx="96" cy="162" rx="13" ry="19" fill="#402339"/><ellipse cx="164" cy="162" rx="13" ry="19" fill="#402339"/><path d="M119 193h22l-11 11zm11 11q-18 20-36 2m36-2q18 20 36 2" fill="#d95862" stroke="#5d293d" stroke-width="5"/><path d="M96 81l10-36 24 27 24-27 10 36" fill="#ffe78c" stroke="#a93843" stroke-width="5"/></svg>
