<svg xmlns="http://www.w3.org/2000/svg" viewBox="0 0 260 300"><defs><linearGradient id="h" x2="1" y2="1"><stop stop-color="#fff7b2"/><stop offset=".35" stop-color="#9fe8dc"/><stop offset=".7" stop-color="#d4a5ff"/><stop offset="1" stop-color="#ff9fc2"/></linearGradient></defs><path d="M48 120L37 39l73 48m102 33l11-81-73 48" fill="url(#h)" stroke="#72548c" stroke-width="8"/><path d="M43 139q7-74 87-74t87 74v72q-5 69-87 69t-87-69z" fill="url(#h)" stroke="#72548c" stroke-width="8"/><path d="M63 112q25-46 67-22 43-28 70 22-70-20-137 0z" fill="#fff9dc"/><ellipse cx="94" cy="163" rx="14" ry="20" fill="#463a6a"/><ellipse cx="166" cy="163" rx="14" ry="20" fill="#463a6a"/><path d="M119 194h22l-11 11zm11 11q-18 20-36 2m36-2q18 20 36 2" fill="#e977a4" stroke="#72548c" stroke-width="5"/><g fill="#fff"><path d="M35 95l4 9 9 4-9 4-4 9-4-9-9-4 9-4z"/><path d="M215 160l4 8 8 4-8 4-4 8-4-8-8-4 8-4z"/></g></svg>
