<svg xmlns="http://www.w3.org/2000/svg" viewBox="0 0 260 300"><defs><linearGradient id="l"><stop stop-color="#e2efa1"/><stop offset="1" stop-color="#69ad69"/></linearGradient></defs><path d="M48 120L37 39l73 48m102 33l11-81-73 48" fill="#69ad69" stroke="#3f624d" stroke-width="8"/><path d="M43 139q7-74 87-74t87 74v72q-5 69-87 69t-87-69z" fill="url(#l)" stroke="#3f624d" stroke-width="8"/><path d="M63 112q25-46 67-22 43-28 70 22-70-20-137 0z" fill="#fbf2bc"/><ellipse cx="94" cy="163" rx="14" ry="20" fill="#2e493d"/><ellipse cx="166" cy="163" rx="14" ry="20" fill="#2e493d"/><path d="M119 194h22l-11 11zm11 11q-18 20-36 2m36-2q18 20 36 2" fill="#df7080" stroke="#3f624d" stroke-width="5"/><path d="M190 70q-28-47-60-36 8 42 60 36z" fill="#4f945a"/><path d="M58 210l-43-8m45 25l-41 11m183-28l43-8m-45 25l41 11" stroke="#3f624d" stroke-width="5" stroke-linecap="round"/></svg>
