<svg xmlns="http://www.w3.org/2000/svg" viewBox="0 0 260 300"><defs><linearGradient id="v" x2="1" y2="1"><stop stop-color="#29306f"/><stop offset=".5" stop-color="#7953b8"/><stop offset="1" stop-color="#da73c0"/></linearGradient></defs><path d="M45 119L35 30l76 58m104 31l10-89-76 58" fill="url(#v)" stroke="#25244d" stroke-width="8"/><path d="M40 140q8-77 90-77t90 77v72q-6 70-90 70t-90-70z" fill="url(#v)" stroke="#25244d" stroke-width="8"/><g fill="#fff8c8"><circle cx="74" cy="110" r="4"/><circle cx="186" cy="124" r="3"/><circle cx="130" cy="87" r="5"/><path d="M53 163l4 9 9 4-9 4-4 9-4-9-9-4 9-4z"/></g><ellipse cx="94" cy="165" rx="15" ry="21" fill="#fff"/><ellipse cx="166" cy="165" rx="15" ry="21" fill="#fff"/><ellipse cx="94" cy="168" rx="7" ry="12" fill="#4b55a0"/><ellipse cx="166" cy="168" rx="7" ry="12" fill="#4b55a0"/><path d="M118 199h24l-12 11zm12 11q-18 20-36 2m36-2q18 20 36 2" fill="#f391bd" stroke="#25244d" stroke-width="5"/><ellipse cx="130" cy="132" rx="105" ry="20" fill="none" stroke="#ffd06d" stroke-width="5" transform="rotate(-14 130 132)"/></svg>
