<svg xmlns="http://www.w3.org/2000/svg" viewBox="0 0 300 280"><defs><linearGradient id="c" x2="1" y2="1"><stop stop-color="#9f82ed"/><stop offset="1" stop-color="#5643a0"/></linearGradient><filter id="gl"><feGaussianBlur stdDeviation="8"/></filter></defs><ellipse cx="150" cy="246" rx="100" ry="22" fill="#1b163c" opacity=".3"/><path d="M52 116L69 45l55 49h52l55-49 17 71" fill="#735dc1" stroke="#f8d68a" stroke-width="9" stroke-linejoin="round"/><rect x="35" y="92" width="230" height="151" rx="65" fill="url(#c)" stroke="#f8d68a" stroke-width="10"/><path d="M42 155h216" stroke="#ffe8a7" stroke-width="9"/><path d="M150 111c35 0 61 22 61 50" stroke="#fff" stroke-opacity=".5" stroke-width="7" fill="none"/><circle cx="150" cy="162" r="34" fill="#f7c85c"/><path d="M132 165c7-24 29-24 36 0 7 23-43 23-36 0zM134 143l-9-13m41 13l9-13" fill="#fff4d2"/><g fill="#fff" filter="url(#gl)"><circle cx="77" cy="149" r="9"/><circle cx="224" cy="149" r="9"/></g></svg>
